<?xml version="1.0" encoding="UTF-8" standalone="no"?>
<!DOCTYPE svg PUBLIC "-//W3C//DTD SVG 1.1//EN" "http://www.w3.org/Graphics/SVG/1.1/DTD/svg11.dtd">
<svg xmlns="http://www.w3.org/2000/svg" version="1.1" viewBox="0.00 0.00 500.00 500.00">
<path fill="#000000" d="
  M 164.77 178.14
  Q 166.86 178.27 167.40 180.24
  Q 167.59 180.89 168.26 180.81
  L 171.21 180.48
  Q 171.83 180.41 171.79 181.04
  Q 170.88 196.04 170.71 210.99
  Q 170.70 211.66 170.46 212.27
  Q 170.21 212.91 170.20 212.22
  L 169.93 182.54
  A 0.53 0.53 0.0 0 0 169.34 182.02
  C 149.86 184.19 131.18 189.14 111.90 192.19
  Q 91.88 195.36 72.10 197.80
  A 1.20 1.19 86.5 0 0 71.06 198.99
  C 70.94 244.32 69.81 289.21 70.85 334.20
  Q 70.88 335.48 72.14 335.24
  L 167.39 316.78
  A 1.35 1.34 83.1 0 0 168.48 315.39
  C 167.12 288.65 170.10 261.95 168.97 235.26
  Q 168.64 227.66 169.33 235.24
  Q 170.21 244.93 169.91 254.62
  C 169.22 276.84 169.18 298.62 169.38 313.27
  C 169.47 319.45 165.92 318.16 161.77 319.03
  Q 129.18 325.82 96.52 332.44
  C 88.19 334.12 79.58 335.14 71.06 336.43
  Q 70.56 336.51 70.23 336.88
  C 65.56 342.17 57.14 335.04 54.40 331.34
  C 53.38 329.96 53.68 328.00 53.69 326.34
  C 54.14 286.09 53.27 245.76 53.23 205.50
  Q 53.22 200.78 51.99 194.25
  C 51.11 189.56 56.18 187.31 59.95 187.61
  C 64.07 187.93 68.45 187.16 71.74 185.97
  Q 100.86 175.42 130.39 166.04
  C 134.13 164.85 139.93 162.34 145.08 161.24
  A 1.36 1.35 -89.6 0 1 146.68 162.87
  Q 146.15 165.17 146.83 167.37
  Q 147.02 167.98 147.64 167.82
  L 150.29 167.10
  Q 150.81 166.96 151.16 167.36
  L 152.21 168.53
  Q 152.49 168.85 152.91 168.77
  Q 155.37 168.29 156.29 170.68
  Q 156.51 171.24 157.11 171.38
  L 159.63 171.95
  Q 160.09 172.05 160.28 172.49
  Q 161.47 175.22 164.54 175.74
  Q 165.43 175.89 164.92 176.64
  L 164.41 177.40
  Q 163.93 178.09 164.77 178.14
  Z
  M 59.94 189.64
  L 58.09 189.18
  Q 57.32 189.00 57.25 189.78
  Q 57.10 191.49 58.06 192.85
  Q 58.42 193.36 58.90 192.97
  L 59.66 192.37
  Q 60.06 192.06 60.56 192.16
  C 62.77 192.63 64.17 193.03 66.43 192.27
  C 91.08 183.98 113.32 175.38 144.57 164.41
  Q 145.01 164.25 145.00 163.78
  Q 145.00 163.62 145.02 163.47
  Q 145.11 162.89 144.55 163.08
  C 131.14 167.68 116.30 171.57 104.02 175.68
  C 89.88 180.42 75.39 186.39 60.87 189.64
  Q 60.40 189.75 59.94 189.64
  Z
  M 145.66 168.06
  L 145.11 166.48
  A 0.51 0.51 0.0 0 0 144.46 166.16
  L 144.28 166.22
  A 76.58 1.24 -19.0 0 0 72.28 192.33
  L 72.35 192.53
  A 76.58 1.24 -19.0 0 0 145.16 168.77
  L 145.34 168.71
  A 0.51 0.51 0.0 0 0 145.66 168.06
  Z
  M 150.4825 168.9809
  A 0.26 0.26 0.0 0 0 150.1552 168.8134
  L 86.4745 189.3817
  A 0.26 0.26 0.0 0 0 86.3070 189.7091
  L 86.4975 190.2991
  A 0.26 0.26 0.0 0 0 86.8248 190.4666
  L 150.5055 169.8983
  A 0.26 0.26 0.0 0 0 150.6730 169.5709
  L 150.4825 168.9809
  Z
  M 134.62 176.22
  Q 133.09 176.70 131.72 177.39
  Q 131.41 177.55 131.54 177.87
  C 131.69 178.22 152.96 173.80 154.60 172.63
  Q 154.99 172.36 155.01 171.88
  C 155.08 170.36 152.33 170.56 151.45 170.85
  Q 143.05 173.58 134.62 176.22
  Z
  M 91.06 191.00
  C 92.68 191.22 94.04 190.39 95.06 190.19
  Q 127.71 183.77 160.22 176.64
  Q 160.66 176.54 160.41 176.16
  L 158.70 173.62
  Q 158.38 173.14 157.82 173.28
  L 86.83 191.35
  A 0.15 0.15 0.0 0 0 86.81 191.64
  Q 88.53 192.23 90.14 191.21
  Q 90.56 190.94 91.06 191.00
  Z
  M 162.5913 177.7355
  A 0.26 0.26 0.0 0 0 162.2832 177.5347
  L 143.4176 181.5103
  A 0.26 0.26 0.0 0 0 143.2168 181.8183
  L 143.3487 182.4445
  A 0.26 0.26 0.0 0 0 143.6568 182.6453
  L 162.5224 178.6697
  A 0.26 0.26 0.0 0 0 162.7232 178.3617
  L 162.5913 177.7355
  Z
  M 130.72 177.96
  L 128.56 178.32
  Q 127.32 178.53 128.52 178.91
  Q 130.07 179.40 130.97 178.43
  A 0.28 0.28 0.0 0 0 130.72 177.96
  Z
  M 89.47 192.73
  L 89.80 194.60
  A 0.20 0.20 0.0 0 0 90.03 194.76
  L 90.19 194.73
  A 76.40 1.12 -10.0 0 0 165.23 180.36
  L 165.22 180.31
  A 76.40 1.12 -10.0 0 0 89.79 192.47
  L 89.63 192.50
  A 0.20 0.20 0.0 0 0 89.47 192.73
  Z
  M 68.40 198.82
  C 63.84 198.89 56.27 196.22 55.66 190.85
  Q 55.61 190.36 55.11 190.29
  C 51.57 189.79 55.83 194.97 56.52 195.63
  C 59.35 198.37 63.93 201.16 68.00 200.29
  Q 68.83 200.11 68.89 199.35
  Q 68.94 198.82 68.40 198.82
  Z
  M 69.3099 193.3159
  A 1.84 0.67 -22.5 0 0 67.3536 193.4010
  A 1.84 0.67 -22.5 0 0 65.9101 194.7241
  A 1.84 0.67 -22.5 0 0 67.8664 194.6390
  A 1.84 0.67 -22.5 0 0 69.3099 193.3159
  Z
  M 60.15 194.40
  Q 60.64 195.68 61.96 195.77
  A 0.35 0.35 0.0 0 0 62.20 195.15
  L 60.73 193.97
  Q 59.65 193.10 60.15 194.40
  Z
  M 66.46 202.27
  Q 59.31 201.52 54.63 196.09
  A 0.41 0.41 0.0 0 0 53.92 196.44
  Q 54.58 199.86 54.58 203.25
  Q 54.65 260.58 55.18 317.90
  C 55.23 322.78 53.64 328.87 57.78 332.68
  C 60.71 335.38 63.45 337.66 67.77 336.90
  A 0.87 0.87 0.0 0 0 68.50 336.04
  L 69.28 202.03
  Q 69.28 201.30 68.61 201.59
  L 67.34 202.13
  Q 66.92 202.32 66.46 202.27
  Z
  M 68.40 195.97
  C 67.99 196.29 67.60 197.47 68.57 197.24
  Q 69.00 197.14 69.00 196.70
  L 69.00 196.27
  A 0.38 0.37 72.0 0 0 68.40 195.97
  Z"
/>
<ellipse fill="#000000" cx="0.00" cy="0.00" transform="translate(182.03,174.20) rotate(82.7)" rx="1.16" ry="1.04"/>
<circle fill="#000000" cx="186.02" cy="174.17" r="1.10"/>
<circle fill="#000000" cx="190.01" cy="174.19" r="1.11"/>
<circle fill="#000000" cx="194.01" cy="174.19" r="1.11"/>
<circle fill="#000000" cx="198.01" cy="174.19" r="1.11"/>
<circle fill="#000000" cx="202.01" cy="174.19" r="1.11"/>
<circle fill="#000000" cx="206.01" cy="174.19" r="1.11"/>
<circle fill="#000000" cx="210.01" cy="174.19" r="1.11"/>
<circle fill="#000000" cx="214.01" cy="174.19" r="1.11"/>
<circle fill="#000000" cx="218.01" cy="174.19" r="1.11"/>
<circle fill="#000000" cx="222.01" cy="174.19" r="1.11"/>
<circle fill="#000000" cx="226.01" cy="174.19" r="1.11"/>
<circle fill="#000000" cx="230.01" cy="174.19" r="1.11"/>
<circle fill="#000000" cx="234.01" cy="174.19" r="1.11"/>
<circle fill="#000000" cx="238.01" cy="174.19" r="1.11"/>
<circle fill="#000000" cx="242.01" cy="174.19" r="1.11"/>
<circle fill="#000000" cx="246.01" cy="174.19" r="1.11"/>
<circle fill="#000000" cx="250.01" cy="174.19" r="1.11"/>
<circle fill="#000000" cx="254.01" cy="174.19" r="1.11"/>
<circle fill="#000000" cx="258.01" cy="174.19" r="1.11"/>
<circle fill="#000000" cx="262.01" cy="174.19" r="1.11"/>
<circle fill="#000000" cx="266.01" cy="174.19" r="1.11"/>
<circle fill="#000000" cx="270.01" cy="174.19" r="1.11"/>
<circle fill="#000000" cx="274.01" cy="174.19" r="1.11"/>
<circle fill="#000000" cx="278.01" cy="174.19" r="1.11"/>
<circle fill="#000000" cx="282.01" cy="174.19" r="1.11"/>
<circle fill="#000000" cx="286.01" cy="174.19" r="1.11"/>
<circle fill="#000000" cx="290.01" cy="174.19" r="1.11"/>
<circle fill="#000000" cx="294.01" cy="174.19" r="1.11"/>
<circle fill="#000000" cx="298.01" cy="174.19" r="1.11"/>
<circle fill="#000000" cx="302.01" cy="174.19" r="1.11"/>
<circle fill="#000000" cx="306.01" cy="174.19" r="1.11"/>
<circle fill="#000000" cx="310.01" cy="174.19" r="1.11"/>
<circle fill="#000000" cx="314.01" cy="174.19" r="1.11"/>
<circle fill="#000000" cx="318.01" cy="174.19" r="1.11"/>
<circle fill="#000000" cx="322.01" cy="174.19" r="1.11"/>
<circle fill="#000000" cx="326.02" cy="174.17" r="1.10"/>
<circle fill="#000000" cx="330.01" cy="174.19" r="1.11"/>
<circle fill="#000000" cx="334.01" cy="174.19" r="1.11"/>
<circle fill="#000000" cx="338.02" cy="174.17" r="1.10"/>
<circle fill="#000000" cx="342.01" cy="174.19" r="1.11"/>
<circle fill="#000000" cx="346.01" cy="174.19" r="1.11"/>
<circle fill="#000000" cx="350.01" cy="174.19" r="1.11"/>
<circle fill="#000000" cx="354.01" cy="174.19" r="1.11"/>
<circle fill="#000000" cx="358.02" cy="174.17" r="1.10"/>
<circle fill="#000000" cx="362.01" cy="174.19" r="1.11"/>
<circle fill="#000000" cx="366.02" cy="174.17" r="1.10"/>
<ellipse fill="#000000" cx="0.00" cy="0.00" transform="translate(369.48,174.18) rotate(86.1)" rx="1.10" ry="0.53"/>
<path fill="#000000" d="
  M 345.29 199.50
  L 353.26 199.51
  A 0.42 0.42 0.0 0 1 353.56 200.22
  L 340.92 213.40
  A 0.42 0.42 0.0 0 0 340.87 213.92
  L 354.83 235.34
  A 0.42 0.42 0.0 0 1 354.48 235.99
  L 346.16 236.00
  A 0.42 0.42 0.0 0 1 345.81 235.81
  L 335.54 219.79
  A 0.42 0.42 0.0 0 0 334.89 219.72
  L 329.12 225.54
  A 0.42 0.42 0.0 0 0 329.00 225.83
  L 329.00 235.58
  A 0.42 0.42 0.0 0 1 328.58 236.00
  L 321.67 236.00
  A 0.42 0.42 0.0 0 1 321.25 235.58
  L 321.25 185.66
  A 0.42 0.42 0.0 0 1 321.67 185.24
  L 328.58 185.15
  A 0.42 0.42 0.0 0 1 329.00 185.57
  L 329.00 214.95
  A 0.42 0.42 0.0 0 0 329.72 215.24
  L 344.99 199.63
  A 0.42 0.42 0.0 0 1 345.29 199.50
  Z"
/>
<path fill="#000000" d="
  M 217.16 210.96
  C 218.83 211.63 220.48 212.25 221.77 213.29
  C 227.40 217.88 227.45 227.42 222.20 231.93
  C 215.17 237.97 196.80 236.18 187.84 235.88
  Q 187.25 235.86 187.25 235.27
  L 187.25 188.49
  A 0.45 0.45 0.0 0 1 187.69 188.04
  Q 198.58 187.89 209.56 188.07
  C 215.73 188.17 222.64 190.96 223.75 197.52
  Q 225.32 206.73 217.15 210.32
  Q 216.39 210.65 217.16 210.96
  Z
  M 195.25 196.32
  L 195.33 207.06
  A 1.03 1.03 0.0 0 0 196.36 208.08
  L 208.00 208.00
  A 8.03 6.14 -0.4 0 0 215.99 201.81
  L 215.99 201.29
  A 8.03 6.14 -0.4 0 0 207.92 195.20
  L 196.28 195.29
  A 1.03 1.03 0.0 0 0 195.25 196.32
  Z
  M 195.26 216.08
  L 195.22 227.68
  A 1.14 1.14 0.0 0 0 196.36 228.82
  L 208.24 228.87
  A 9.50 6.58 0.2 0 0 217.76 222.32
  L 217.76 221.60
  A 9.50 6.58 0.2 0 0 208.28 214.99
  L 196.40 214.94
  A 1.14 1.14 0.0 0 0 195.26 216.08
  Z"
/>
<path fill="#000000" d="
  M 269.8589 217.5689
  A 19.20 18.70 -0.6 0 1 250.8558 236.4690
  A 19.20 18.70 -0.6 0 1 231.4611 217.9711
  A 19.20 18.70 -0.6 0 1 250.4642 199.0710
  A 19.20 18.70 -0.6 0 1 269.8589 217.5689
  Z
  M 250.6179 229.7298
  A 11.86 11.21 90.3 0 0 261.8898 217.9287
  A 11.86 11.21 90.3 0 0 250.7421 206.0102
  A 11.86 11.21 90.3 0 0 239.4702 217.8113
  A 11.86 11.21 90.3 0 0 250.6179 229.7298
  Z"
/>
<path fill="#000000" d="
  M 312.8589 217.5689
  A 19.20 18.70 -0.6 0 1 293.8558 236.4690
  A 19.20 18.70 -0.6 0 1 274.4611 217.9711
  A 19.20 18.70 -0.6 0 1 293.4642 199.0710
  A 19.20 18.70 -0.6 0 1 312.8589 217.5689
  Z
  M 293.6593 229.7500
  A 11.87 11.21 90.1 0 0 304.8900 217.8996
  A 11.87 11.21 90.1 0 0 293.7007 206.0100
  A 11.87 11.21 90.1 0 0 282.4700 217.8604
  A 11.87 11.21 90.1 0 0 293.6593 229.7500
  Z"
/>
<path fill="#000000" d="
  M 169.71 215.82
  A 0.01 0.01 0.0 0 1 169.72 215.81
  L 169.99 215.81
  A 4.03 0.50 89.9 0 1 170.50 219.84
  L 170.50 220.16
  A 4.03 0.50 89.9 0 1 170.01 224.19
  L 169.74 224.19
  A 0.01 0.01 0.0 0 1 169.73 224.18
  L 169.71 215.82
  Z"
/>
<circle fill="#000000" cx="306.77" cy="242.50" r="4.32"/>
<path fill="#000000" d="
  M 194.23 273.14
  L 194.30 285.22
  Q 194.31 286.00 193.53 286.00
  L 187.38 286.00
  Q 186.75 286.00 186.75 285.38
  L 186.75 242.23
  Q 186.75 241.60 187.39 241.58
  C 199.43 241.24 225.57 238.10 222.64 258.96
  C 221.87 264.39 219.35 268.51 214.39 270.78
  A 0.73 0.73 0.0 0 0 214.09 271.86
  L 223.15 285.30
  Q 223.62 286.00 222.78 286.00
  L 215.72 286.00
  Q 215.09 286.00 214.76 285.46
  L 207.12 272.87
  Q 206.90 272.50 206.47 272.50
  L 194.86 272.50
  Q 194.22 272.50 194.23 273.14
  Z
  M 194.19 249.05
  L 194.19 264.91
  A 0.87 0.87 0.0 0 0 195.06 265.78
  L 206.50 265.78
  A 9.25 8.31 0.0 0 0 215.75 257.47
  L 215.75 256.49
  A 9.25 8.31 0.0 0 0 206.50 248.18
  L 195.06 248.18
  A 0.87 0.87 0.0 0 0 194.19 249.05
  Z"
/>
<path fill="#000000" d="
  M 237.03 272.79
  C 238.86 281.59 250.22 282.14 256.12 276.79
  Q 256.55 276.40 256.97 276.82
  L 260.13 280.06
  Q 260.62 280.56 260.10 281.02
  Q 252.02 288.25 241.43 285.62
  C 222.47 280.90 226.25 250.81 247.48 252.03
  C 259.10 252.70 262.81 260.87 262.22 271.27
  A 0.79 0.78 1.5 0 1 261.43 272.01
  L 237.70 271.97
  Q 236.86 271.97 237.03 272.79
  Z
  M 236.77 266.78
  L 255.67 266.48
  A 0.15 0.15 0.0 0 0 255.82 266.33
  L 255.82 266.30
  A 9.48 8.68 -0.9 0 0 246.20 257.77
  L 245.96 257.77
  A 9.48 8.68 -0.9 0 0 236.62 266.60
  L 236.62 266.63
  A 0.15 0.15 0.0 0 0 236.77 266.78
  Z"
/>
<path fill="#000000" d="
  M 290.83 252.30
  L 297.46 252.17
  A 0.34 0.34 0.0 0 1 297.78 252.63
  L 285.05 285.78
  A 0.34 0.34 0.0 0 1 284.74 286.00
  L 277.62 286.00
  A 0.34 0.34 0.0 0 1 277.31 285.78
  L 264.52 252.71
  A 0.34 0.34 0.0 0 1 264.84 252.25
  L 271.74 252.25
  A 0.34 0.34 0.0 0 1 272.06 252.48
  L 281.04 277.99
  A 0.34 0.34 0.0 0 0 281.68 277.99
  L 290.51 252.52
  A 0.34 0.34 0.0 0 1 290.83 252.30
  Z"
/>
<rect fill="#000000" x="303.24" y="252.22" width="7.26" height="33.76" rx="0.49"/>
<path fill="#000000" d="
  M 325.53 272.60
  C 328.27 281.61 338.48 282.28 344.97 276.81
  Q 345.39 276.45 345.78 276.86
  L 348.87 280.11
  Q 349.38 280.64 348.81 281.13
  Q 341.43 287.43 332.43 286.06
  C 311.10 282.82 313.80 250.74 336.74 252.06
  C 347.91 252.70 351.48 261.18 350.98 271.09
  A 0.95 0.95 0.0 0 1 350.03 272.00
  L 325.98 272.00
  A 0.47 0.47 0.0 0 0 325.53 272.60
  Z
  M 325.47 266.73
  L 344.35 266.47
  A 0.17 0.17 0.0 0 0 344.52 266.30
  L 344.52 266.24
  A 9.45 8.61 -0.8 0 0 334.95 257.76
  L 334.63 257.76
  A 9.45 8.61 -0.8 0 0 325.30 266.50
  L 325.30 266.56
  A 0.17 0.17 0.0 0 0 325.47 266.73
  Z"
/>
<path fill="#000000" d="
  M 381.26 261.87
  L 373.13 285.76
  A 0.35 0.35 0.0 0 1 372.80 286.00
  L 365.77 286.00
  A 0.35 0.35 0.0 0 1 365.45 285.77
  L 353.25 252.64
  A 0.35 0.35 0.0 0 1 353.58 252.17
  L 360.37 252.30
  A 0.35 0.35 0.0 0 1 360.70 252.54
  L 369.01 277.78
  A 0.35 0.35 0.0 0 0 369.68 277.78
  L 377.73 252.49
  A 0.35 0.35 0.0 0 1 378.07 252.25
  L 385.21 252.25
  A 0.35 0.35 0.0 0 1 385.55 252.49
  L 393.69 277.78
  A 0.35 0.35 0.0 0 0 394.35 277.78
  L 402.51 252.55
  A 0.35 0.35 0.0 0 1 402.84 252.30
  L 409.61 252.14
  A 0.35 0.35 0.0 0 1 409.94 252.61
  L 397.85 285.77
  A 0.35 0.35 0.0 0 1 397.53 286.00
  L 390.43 286.00
  A 0.35 0.35 0.0 0 1 390.10 285.76
  L 381.92 261.87
  A 0.35 0.35 0.0 0 0 381.26 261.87
  Z"
/>
<path fill="#000000" d="
  M 420.06 261.68
  C 420.70 265.28 433.22 266.48 436.36 271.06
  C 438.84 274.69 438.16 280.46 434.60 283.36
  C 428.43 288.39 417.79 286.23 411.80 282.01
  Q 411.30 281.65 411.57 281.11
  L 413.64 276.97
  A 0.65 0.65 0.0 0 1 414.62 276.75
  Q 420.65 281.50 428.00 280.04
  C 429.65 279.71 431.07 278.14 430.79 276.51
  C 430.01 272.03 419.40 271.47 415.94 268.36
  C 412.59 265.34 412.19 259.65 414.90 256.06
  C 419.57 249.86 431.07 251.54 436.84 255.02
  Q 437.34 255.32 437.08 255.83
  L 434.91 260.19
  Q 434.65 260.71 434.14 260.42
  C 431.63 258.96 418.81 254.63 420.06 261.68
  Z"
/>
<path fill="#000000" d="
  M 181.55 303.01
  A 0.81 0.81 0.0 0 1 182.37 302.21
  L 184.80 302.25
  A 5.32 5.00 -89.1 0 1 189.72 307.64
  L 189.70 308.84
  A 5.32 5.00 -89.1 0 1 184.62 314.09
  L 182.19 314.05
  A 0.81 0.81 0.0 0 1 181.39 313.22
  L 181.55 303.01
  Z
  M 183.19 304.62
  L 183.23 311.66
  A 0.62 0.62 0.0 0 0 183.85 312.28
  L 185.01 312.27
  A 3.22 2.78 89.7 0 0 187.77 309.04
  L 187.77 307.20
  A 3.22 2.78 89.7 0 0 184.97 303.99
  L 183.81 304.00
  A 0.62 0.62 0.0 0 0 183.19 304.62
  Z"
/>
<path fill="#000000" d="
  M 196.00 311.49
  L 196.00 304.86
  Q 196.00 304.19 195.34 304.06
  L 194.54 303.90
  Q 193.99 303.79 193.98 303.22
  C 193.98 301.64 198.79 302.28 199.62 302.50
  Q 200.27 302.68 199.98 303.30
  Q 199.58 304.16 198.58 304.00
  Q 197.79 303.88 197.78 304.69
  L 197.73 311.30
  Q 197.73 311.97 198.36 312.21
  L 199.38 312.60
  Q 199.80 312.76 199.91 313.19
  C 200.24 314.40 194.45 314.34 194.05 313.39
  Q 193.81 312.83 194.39 312.61
  L 195.50 312.20
  Q 196.00 312.02 196.00 311.49
  Z"
/>
<path fill="#000000" d="
  M 206.89 304.70
  A 1.10 1.10 0.0 0 0 207.40 306.38
  C 209.12 307.00 211.57 307.90 212.33 309.63
  C 213.58 312.51 210.10 315.14 207.31 313.71
  Q 206.86 313.48 206.38 313.66
  L 205.59 313.94
  Q 204.75 314.25 204.75 313.36
  L 204.75 310.71
  A 0.84 0.84 0.0 0 1 206.39 310.46
  Q 207.26 313.20 210.06 312.21
  A 1.16 1.16 0.0 0 0 210.49 310.29
  Q 208.89 308.71 206.70 308.12
  Q 206.19 307.98 205.87 307.56
  C 203.42 304.37 206.42 301.16 209.76 302.56
  Q 210.21 302.74 210.68 302.61
  L 211.63 302.34
  Q 212.25 302.17 212.25 302.81
  L 212.25 305.28
  Q 212.25 305.91 211.63 305.99
  Q 210.46 306.16 210.27 304.95
  Q 210.19 304.47 209.78 304.20
  Q 208.10 303.08 206.89 304.70
  Z"
/>
<path fill="#000000" d="
  M 221.49 304.14
  C 216.17 302.47 217.05 315.30 222.04 311.93
  Q 222.44 311.65 222.63 311.21
  Q 222.95 310.43 223.66 309.98
  Q 224.31 309.57 224.42 310.33
  C 224.84 313.15 221.29 314.76 219.13 313.93
  C 213.95 311.93 215.80 299.55 221.99 302.74
  Q 222.38 302.94 222.78 302.74
  L 223.73 302.25
  Q 224.51 301.86 224.51 302.73
  L 224.49 306.68
  Q 224.48 308.06 223.58 307.01
  Q 222.74 306.05 222.27 304.87
  Q 222.06 304.31 221.49 304.14
  Z"
/>
<path fill="#000000" d="
  M 232.4000 314.2600
  A 6.09 4.51 90.0 0 1 227.8900 308.1700
  A 6.09 4.51 90.0 0 1 232.4000 302.0800
  A 6.09 4.51 90.0 0 1 236.9100 308.1700
  A 6.09 4.51 90.0 0 1 232.4000 314.2600
  Z
  M 232.4581 312.5598
  A 4.37 2.62 89.5 0 0 235.0399 308.1671
  A 4.37 2.62 89.5 0 0 232.3819 303.8202
  A 4.37 2.62 89.5 0 0 229.8001 308.2129
  A 4.37 2.62 89.5 0 0 232.4581 312.5598
  Z"
/>
<path fill="#000000" d="
  M 244.61 310.41
  L 246.72 302.82
  Q 246.87 302.25 247.47 302.25
  L 248.21 302.25
  Q 248.89 302.25 248.69 302.89
  L 245.43 313.36
  Q 245.23 314.00 244.56 314.00
  L 243.68 314.00
  Q 243.10 314.00 242.92 313.45
  L 239.68 303.02
  Q 239.51 302.48 240.05 302.33
  C 242.08 301.74 243.54 309.57 243.84 310.43
  Q 244.26 311.69 244.61 310.41
  Z"
/>
<path fill="#000000" d="
  M 253.99 310.23
  L 254.03 311.61
  Q 254.04 312.22 254.65 312.23
  C 255.77 312.26 259.66 311.71 259.78 313.32
  Q 259.83 314.00 259.15 314.00
  L 252.64 314.00
  Q 252.17 314.00 252.18 313.52
  L 252.28 302.93
  Q 252.29 302.31 252.92 302.28
  C 254.33 302.20 259.05 301.81 259.81 303.01
  A 0.65 0.65 0.0 0 1 259.26 304.00
  L 254.62 304.00
  Q 253.98 304.00 253.99 304.63
  L 254.02 306.59
  Q 254.03 307.21 254.65 307.22
  L 258.07 307.30
  Q 259.57 307.34 258.48 308.38
  Q 257.36 309.44 255.62 308.96
  A 1.29 1.28 6.9 0 0 253.99 310.23
  Z"
/>
<path fill="#000000" d="
  M 265.79 309.71
  L 265.85 313.55
  Q 265.86 313.94 265.46 313.96
  L 264.64 314.00
  Q 264.00 314.04 264.00 313.39
  L 264.00 302.99
  Q 264.00 302.48 264.50 302.37
  Q 268.22 301.56 271.10 303.66
  Q 271.55 303.98 271.66 304.52
  Q 272.37 307.86 269.42 309.04
  Q 268.77 309.30 269.17 309.87
  L 271.55 313.29
  Q 272.05 314.00 271.18 314.00
  L 270.17 314.00
  Q 269.53 314.00 269.19 313.45
  L 266.77 309.43
  Q 265.76 307.78 265.79 309.71
  Z
  M 265.70 304.83
  L 265.78 307.03
  A 0.78 0.78 0.0 0 0 266.58 307.78
  L 266.96 307.77
  A 3.10 1.77 -1.9 0 0 270.00 305.90
  L 270.00 305.68
  A 3.10 1.77 -1.9 0 0 266.84 304.01
  L 266.46 304.03
  A 0.78 0.78 0.0 0 0 265.70 304.83
  Z"
/>
<path fill="#000000" d="
  M 299.44 303.12
  A 0.90 0.90 0.0 0 1 300.35 302.23
  L 302.87 302.25
  A 5.27 4.92 -89.5 0 1 307.75 307.57
  L 307.73 308.83
  A 5.27 4.92 -89.5 0 1 302.77 314.05
  L 300.25 314.03
  A 0.90 0.90 0.0 0 1 299.36 313.12
  L 299.44 303.12
  Z
  M 301.22 304.62
  L 301.22 311.64
  A 0.62 0.62 0.0 0 0 301.84 312.26
  L 303.12 312.26
  A 3.14 2.64 -90.0 0 0 305.76 309.12
  L 305.76 307.14
  A 3.14 2.64 90.0 0 0 303.12 304.00
  L 301.84 304.00
  A 0.62 0.62 0.0 0 0 301.22 304.62
  Z"
/>
<path fill="#000000" d="
  M 314.00 311.49
  L 314.00 304.73
  Q 314.00 304.01 313.28 304.01
  Q 312.63 304.02 312.13 303.36
  Q 311.89 303.06 312.13 302.76
  C 312.87 301.86 316.64 302.23 317.62 302.50
  Q 318.27 302.68 317.99 303.30
  Q 317.58 304.16 316.58 304.00
  Q 315.79 303.88 315.78 304.69
  L 315.73 311.30
  Q 315.73 311.97 316.36 312.21
  L 317.38 312.60
  Q 317.80 312.76 317.91 313.19
  C 318.24 314.40 312.32 314.35 312.05 313.35
  Q 311.89 312.79 312.44 312.59
  L 313.50 312.20
  Q 314.00 312.02 314.00 311.49
  Z"
/>
<path fill="#000000" d="
  M 327.28 310.46
  L 329.47 302.90
  Q 329.66 302.25 330.34 302.25
  L 330.95 302.25
  Q 331.67 302.25 331.45 302.93
  L 328.10 313.51
  Q 327.94 314.03 327.40 314.01
  L 326.42 313.97
  Q 325.86 313.95 325.69 313.42
  L 322.41 303.02
  Q 322.22 302.41 322.84 302.28
  C 324.86 301.83 326.08 308.92 326.47 310.44
  A 0.42 0.42 0.0 0 0 327.28 310.46
  Z"
/>
<path fill="#000000" d="
  M 336.74 304.80
  L 336.77 306.61
  Q 336.78 307.25 337.42 307.25
  L 340.54 307.25
  Q 341.10 307.25 341.24 307.79
  C 341.70 309.48 338.28 309.02 337.47 308.97
  Q 336.83 308.94 336.81 309.58
  L 336.75 311.58
  Q 336.73 312.25 337.40 312.25
  L 341.74 312.25
  Q 342.42 312.25 342.42 312.93
  L 342.42 313.45
  A 0.56 0.55 -0.0 0 1 341.86 314.00
  L 335.63 314.00
  Q 335.00 314.00 335.00 313.37
  L 335.00 302.99
  Q 335.00 302.23 335.76 302.23
  L 342.04 302.28
  A 0.57 0.57 0.0 0 1 342.57 303.05
  C 341.92 304.77 338.95 303.70 337.26 304.12
  Q 336.73 304.26 336.74 304.80
  Z"
/>
<path fill="#000000" d="
  M 370.56 302.89
  A 0.69 0.69 0.0 0 1 371.26 302.21
  L 373.79 302.25
  A 5.36 5.02 -89.1 0 1 378.73 307.68
  L 378.71 308.82
  A 5.36 5.02 -89.1 0 1 373.61 314.11
  L 371.08 314.07
  A 0.69 0.69 0.0 0 1 370.40 313.36
  L 370.56 302.89
  Z
  M 372.20 304.61
  L 372.22 311.65
  A 0.62 0.62 0.0 0 0 372.84 312.27
  L 374.02 312.27
  A 3.18 2.76 89.9 0 0 376.77 309.09
  L 376.77 307.17
  A 3.18 2.76 89.9 0 0 374.00 303.99
  L 372.82 303.99
  A 0.62 0.62 0.0 0 0 372.20 304.61
  Z"
/>
<path fill="#000000" d="
  M 385.00 311.73
  L 385.00 304.79
  Q 385.00 304.07 384.28 304.01
  L 383.71 303.97
  Q 383.18 303.93 383.06 303.41
  C 382.68 301.70 388.97 301.70 388.88 303.29
  Q 388.85 303.88 388.27 303.96
  L 387.38 304.08
  Q 386.75 304.17 386.75 304.80
  L 386.75 311.43
  Q 386.75 311.92 387.20 312.10
  L 388.66 312.69
  Q 389.08 312.85 388.98 313.29
  C 388.70 314.47 384.25 314.00 383.34 313.84
  Q 382.32 313.66 383.03 312.91
  Q 383.52 312.39 384.36 312.38
  Q 385.00 312.37 385.00 311.73
  Z"
/>
<path fill="#000000" d="
  M 395.97 304.54
  A 1.10 1.10 0.0 0 0 396.32 306.24
  L 400.52 308.33
  Q 401.08 308.60 401.23 309.21
  Q 402.30 313.41 398.27 314.20
  Q 397.73 314.31 397.24 314.05
  Q 395.86 313.31 394.51 313.97
  Q 393.75 314.34 393.75 313.50
  L 393.75 310.59
  Q 393.75 309.81 394.49 310.05
  L 394.84 310.17
  Q 395.36 310.35 395.57 310.86
  C 396.77 313.89 401.03 312.22 399.21 309.78
  Q 398.88 309.33 398.33 309.19
  Q 396.12 308.63 394.46 307.12
  Q 394.06 306.76 394.01 306.23
  C 393.44 300.20 398.14 303.56 400.58 302.35
  Q 401.25 302.02 401.25 302.77
  L 401.25 305.28
  Q 401.25 305.91 400.63 305.99
  Q 399.46 306.16 399.27 304.96
  Q 399.18 304.37 398.65 304.09
  Q 397.05 303.25 395.97 304.54
  Z"
/>
<path fill="#000000" d="
  M 410.86 304.35
  C 406.76 301.32 406.59 309.41 407.88 311.63
  A 1.98 1.98 0.0 0 0 410.87 312.14
  Q 411.68 311.45 412.06 310.40
  Q 412.24 309.92 412.74 309.99
  L 413.06 310.03
  Q 413.58 310.10 413.49 310.62
  C 412.58 315.51 406.63 315.25 405.36 310.66
  C 404.54 307.67 405.09 302.40 409.68 302.26
  Q 410.21 302.24 410.63 302.55
  Q 411.65 303.29 412.68 302.23
  Q 413.49 301.40 413.49 302.57
  L 413.49 306.57
  Q 413.49 307.95 412.53 306.96
  Q 411.76 306.16 411.41 305.11
  Q 411.26 304.64 410.86 304.35
  Z"
/>
<path fill="#000000" d="
  M 422.14 312.38
  A 1.44 1.44 0.0 0 0 423.24 310.98
  L 423.25 303.00
  Q 423.25 302.42 423.81 302.30
  C 426.35 301.75 425.03 310.56 424.90 311.43
  C 424.42 314.63 419.90 315.04 418.37 312.55
  C 417.19 310.65 417.75 305.18 417.75 302.82
  Q 417.75 302.25 418.33 302.25
  L 418.93 302.25
  Q 419.59 302.25 419.56 302.91
  C 419.46 304.78 418.36 313.29 422.14 312.38
  Z"
/>
<path fill="#000000" d="
  M 434.91 311.65
  C 435.81 309.13 431.93 308.76 430.57 307.57
  C 428.72 305.97 429.21 303.12 431.54 302.42
  C 433.20 301.92 434.09 303.16 436.00 302.28
  Q 436.75 301.94 436.75 302.76
  L 436.75 305.47
  Q 436.75 306.22 436.02 306.06
  Q 434.96 305.83 434.61 304.73
  Q 434.47 304.28 434.04 304.06
  Q 432.53 303.27 431.47 304.66
  A 1.11 1.11 0.0 0 0 431.92 306.37
  C 433.67 307.10 435.95 307.83 436.77 309.54
  C 438.00 312.08 434.95 315.11 432.36 313.87
  Q 431.96 313.68 431.52 313.75
  L 429.87 313.99
  Q 429.14 314.10 429.17 313.37
  L 429.28 310.70
  Q 429.30 310.25 429.71 310.09
  C 431.29 309.44 430.97 313.49 434.23 312.32
  Q 434.73 312.15 434.91 311.65
  Z"
/>
<path fill="#000000" d="
  M 442.96 304.99
  A 0.99 0.99 0.0 0 0 443.59 306.40
  Q 446.36 307.12 448.33 309.10
  Q 448.71 309.49 448.75 310.03
  Q 449.01 313.38 445.84 314.11
  Q 445.28 314.24 444.74 314.04
  Q 443.22 313.49 441.68 313.98
  Q 441.00 314.19 441.00 313.48
  L 441.00 310.95
  A 0.77 0.76 27.3 0 1 442.39 310.51
  C 444.10 312.88 447.95 313.24 446.56 310.16
  Q 446.34 309.68 445.87 309.45
  L 441.99 307.53
  Q 441.43 307.26 441.33 306.64
  C 440.31 300.55 445.10 303.30 447.86 302.31
  Q 448.50 302.08 448.50 302.77
  L 448.50 305.43
  Q 448.50 306.14 447.81 306.00
  L 447.27 305.89
  Q 446.68 305.78 446.55 305.20
  C 446.08 303.10 443.75 303.48 442.96 304.99
  Z"
/>
<ellipse fill="#000000" cx="0.00" cy="0.00" transform="translate(279.68,312.88) rotate(7.1)" rx="1.33" ry="1.22"/>
<ellipse fill="#000000" cx="0.00" cy="0.00" transform="translate(350.39,312.89) rotate(6.4)" rx="1.34" ry="1.22"/>
<ellipse fill="#000000" cx="0.00" cy="0.00" transform="translate(456.68,312.88) rotate(7.1)" rx="1.33" ry="1.22"/>
<ellipse fill="#000000" cx="0.00" cy="0.00" transform="translate(182.03,327.82) rotate(90.9)" rx="1.19" ry="1.04"/>
<circle fill="#000000" cx="186.00" cy="327.82" r="1.13"/>
<circle fill="#000000" cx="190.00" cy="327.82" r="1.13"/>
<circle fill="#000000" cx="194.00" cy="327.82" r="1.13"/>
<circle fill="#000000" cx="198.00" cy="327.82" r="1.13"/>
<circle fill="#000000" cx="202.00" cy="327.82" r="1.13"/>
<circle fill="#000000" cx="206.00" cy="327.82" r="1.13"/>
<circle fill="#000000" cx="210.00" cy="327.82" r="1.13"/>
<circle fill="#000000" cx="214.00" cy="327.82" r="1.13"/>
<circle fill="#000000" cx="218.00" cy="327.82" r="1.13"/>
<circle fill="#000000" cx="222.00" cy="327.82" r="1.13"/>
<circle fill="#000000" cx="226.00" cy="327.82" r="1.13"/>
<circle fill="#000000" cx="230.00" cy="327.82" r="1.13"/>
<circle fill="#000000" cx="234.00" cy="327.82" r="1.13"/>
<circle fill="#000000" cx="238.00" cy="327.82" r="1.13"/>
<circle fill="#000000" cx="242.00" cy="327.82" r="1.13"/>
<circle fill="#000000" cx="246.00" cy="327.82" r="1.13"/>
<circle fill="#000000" cx="250.00" cy="327.82" r="1.13"/>
<circle fill="#000000" cx="254.00" cy="327.82" r="1.13"/>
<circle fill="#000000" cx="258.00" cy="327.82" r="1.13"/>
<circle fill="#000000" cx="262.00" cy="327.82" r="1.13"/>
<circle fill="#000000" cx="266.00" cy="327.82" r="1.13"/>
<circle fill="#000000" cx="270.00" cy="327.82" r="1.13"/>
<circle fill="#000000" cx="274.00" cy="327.82" r="1.13"/>
<circle fill="#000000" cx="278.00" cy="327.82" r="1.13"/>
<circle fill="#000000" cx="282.00" cy="327.82" r="1.13"/>
<circle fill="#000000" cx="286.00" cy="327.82" r="1.13"/>
<circle fill="#000000" cx="290.00" cy="327.82" r="1.13"/>
<circle fill="#000000" cx="294.00" cy="327.82" r="1.13"/>
<circle fill="#000000" cx="298.00" cy="327.82" r="1.13"/>
<circle fill="#000000" cx="302.00" cy="327.82" r="1.13"/>
<circle fill="#000000" cx="306.00" cy="327.82" r="1.13"/>
<circle fill="#000000" cx="310.00" cy="327.82" r="1.13"/>
<circle fill="#000000" cx="314.00" cy="327.82" r="1.13"/>
<circle fill="#000000" cx="318.00" cy="327.82" r="1.13"/>
<circle fill="#000000" cx="322.00" cy="327.82" r="1.13"/>
<circle fill="#000000" cx="326.00" cy="327.82" r="1.13"/>
<circle fill="#000000" cx="330.00" cy="327.82" r="1.13"/>
<circle fill="#000000" cx="334.00" cy="327.82" r="1.13"/>
<circle fill="#000000" cx="338.00" cy="327.82" r="1.13"/>
<circle fill="#000000" cx="342.00" cy="327.82" r="1.13"/>
<circle fill="#000000" cx="346.00" cy="327.82" r="1.13"/>
<circle fill="#000000" cx="350.00" cy="327.82" r="1.13"/>
<circle fill="#000000" cx="354.01" cy="327.80" r="1.12"/>
<circle fill="#000000" cx="358.00" cy="327.82" r="1.13"/>
<circle fill="#000000" cx="362.01" cy="327.80" r="1.12"/>
<circle fill="#000000" cx="366.00" cy="327.82" r="1.13"/>
<circle fill="#000000" cx="370.00" cy="327.82" r="1.13"/>
<circle fill="#000000" cx="374.00" cy="327.82" r="1.13"/>
<circle fill="#000000" cx="378.00" cy="327.82" r="1.13"/>
<circle fill="#000000" cx="382.00" cy="327.82" r="1.13"/>
<circle fill="#000000" cx="386.00" cy="327.82" r="1.13"/>
<circle fill="#000000" cx="390.00" cy="327.82" r="1.13"/>
<circle fill="#000000" cx="394.00" cy="327.82" r="1.13"/>
<circle fill="#000000" cx="398.00" cy="327.82" r="1.13"/>
<circle fill="#000000" cx="402.00" cy="327.82" r="1.13"/>
<circle fill="#000000" cx="406.00" cy="327.82" r="1.13"/>
<circle fill="#000000" cx="410.00" cy="327.82" r="1.13"/>
<circle fill="#000000" cx="414.00" cy="327.82" r="1.13"/>
<circle fill="#000000" cx="418.00" cy="327.82" r="1.13"/>
<circle fill="#000000" cx="422.00" cy="327.82" r="1.13"/>
<circle fill="#000000" cx="426.00" cy="327.82" r="1.13"/>
<circle fill="#000000" cx="430.00" cy="327.82" r="1.13"/>
<circle fill="#000000" cx="434.01" cy="327.80" r="1.12"/>
<circle fill="#000000" cx="438.01" cy="327.80" r="1.12"/>
<ellipse fill="#000000" cx="0.00" cy="0.00" transform="translate(441.50,327.81) rotate(89.7)" rx="1.07" ry="0.55"/>
</svg>
