<?xml version="1.0" encoding="UTF-8" standalone="no"?>
<!DOCTYPE svg PUBLIC "-//W3C//DTD SVG 1.1//EN" "http://www.w3.org/Graphics/SVG/1.1/DTD/svg11.dtd">
<svg xmlns="http://www.w3.org/2000/svg" version="1.1" viewBox="0.00 0.00 500.00 500.00">
<path fill="#ffffff" d="
  M 59.39 192.48
  L 58.93 192.94
  Q 58.31 193.57 57.99 192.74
  L 57.07 190.39
  Q 56.82 189.76 57.45 189.53
  Q 58.52 189.12 59.59 189.70
  Q 60.04 189.94 60.53 189.81
  C 82.30 183.87 103.38 175.55 125.12 169.26
  Q 134.86 166.44 144.47 163.18
  Q 146.59 162.46 145.06 163.69
  Q 144.32 164.29 142.82 164.84
  Q 104.22 178.82 65.55 192.62
  Q 65.10 192.78 64.63 192.71
  L 60.38 192.15
  Q 59.81 192.07 59.39 192.48
  Z"
/>
<path fill="#ffffff" d="
  M 89.89 186.74
  C 84.07 188.36 78.94 191.57 72.81 192.13
  Q 72.18 192.19 72.77 191.97
  L 144.20 166.00
  A 0.75 0.75 0.0 0 1 145.17 166.50
  C 145.55 167.81 144.96 168.52 143.74 168.98
  Q 117.22 179.10 89.89 186.74
  Z"
/>
<path fill="#ffffff" d="
  M 149.97 169.84
  C 131.51 176.28 116.76 180.69 94.06 187.81
  Q 89.94 189.10 86.49 189.68
  Q 84.58 189.99 86.43 189.41
  C 107.66 182.71 128.78 176.12 149.49 168.52
  A 0.70 0.69 -37.7 0 1 150.09 168.59
  C 150.74 169.00 150.56 169.64 149.97 169.84
  Z"
/>
<path fill="#ffffff" d="
  M 128.98 178.35
  C 136.53 175.95 143.90 173.32 151.54 171.14
  C 154.97 170.16 156.77 172.29 152.64 173.24
  C 149.87 173.88 130.08 179.23 128.96 178.72
  Q 128.49 178.51 128.98 178.35
  Z"
/>
<ellipse fill="#ffffff" cx="0.00" cy="0.00" transform="translate(357.99,172.24) rotate(108.0)" rx="1.12" ry="1.03"/>
<ellipse fill="#ffffff" cx="0.00" cy="0.00" transform="translate(361.99,172.31) rotate(106.0)" rx="1.19" ry="0.99"/>
<ellipse fill="#ffffff" cx="0.00" cy="0.00" transform="translate(365.96,172.35) rotate(90.9)" rx="1.20" ry="0.96"/>
<circle fill="#ffffff" cx="182.01" cy="172.29" r="1.06"/>
<circle fill="#ffffff" cx="186.01" cy="172.29" r="1.06"/>
<circle fill="#ffffff" cx="190.00" cy="172.28" r="1.05"/>
<circle fill="#ffffff" cx="193.99" cy="172.28" r="1.05"/>
<circle fill="#ffffff" cx="198.03" cy="172.28" r="1.08"/>
<circle fill="#ffffff" cx="202.03" cy="172.28" r="1.08"/>
<circle fill="#ffffff" cx="206.03" cy="172.28" r="1.08"/>
<circle fill="#ffffff" cx="210.03" cy="172.28" r="1.08"/>
<circle fill="#ffffff" cx="214.03" cy="172.28" r="1.08"/>
<circle fill="#ffffff" cx="218.03" cy="172.28" r="1.08"/>
<circle fill="#ffffff" cx="222.03" cy="172.28" r="1.08"/>
<circle fill="#ffffff" cx="226.03" cy="172.28" r="1.08"/>
<circle fill="#ffffff" cx="230.01" cy="172.29" r="1.06"/>
<circle fill="#ffffff" cx="234.01" cy="172.29" r="1.06"/>
<circle fill="#ffffff" cx="238.01" cy="172.29" r="1.06"/>
<circle fill="#ffffff" cx="242.01" cy="172.29" r="1.06"/>
<circle fill="#ffffff" cx="245.99" cy="172.28" r="1.05"/>
<circle fill="#ffffff" cx="249.99" cy="172.28" r="1.05"/>
<circle fill="#ffffff" cx="253.99" cy="172.28" r="1.05"/>
<circle fill="#ffffff" cx="257.99" cy="172.28" r="1.05"/>
<circle fill="#ffffff" cx="261.99" cy="172.28" r="1.05"/>
<circle fill="#ffffff" cx="266.01" cy="172.29" r="1.06"/>
<circle fill="#ffffff" cx="269.99" cy="172.28" r="1.05"/>
<circle fill="#ffffff" cx="274.01" cy="172.29" r="1.06"/>
<circle fill="#ffffff" cx="277.99" cy="172.28" r="1.05"/>
<circle fill="#ffffff" cx="282.01" cy="172.29" r="1.06"/>
<circle fill="#ffffff" cx="286.01" cy="172.29" r="1.06"/>
<circle fill="#ffffff" cx="290.01" cy="172.29" r="1.06"/>
<circle fill="#ffffff" cx="293.99" cy="172.28" r="1.05"/>
<circle fill="#ffffff" cx="298.01" cy="172.29" r="1.06"/>
<circle fill="#ffffff" cx="302.01" cy="172.29" r="1.06"/>
<circle fill="#ffffff" cx="306.01" cy="172.29" r="1.06"/>
<circle fill="#ffffff" cx="310.01" cy="172.29" r="1.06"/>
<circle fill="#ffffff" cx="314.01" cy="172.29" r="1.06"/>
<circle fill="#ffffff" cx="318.01" cy="172.29" r="1.06"/>
<circle fill="#ffffff" cx="322.01" cy="172.29" r="1.06"/>
<circle fill="#ffffff" cx="326.01" cy="172.29" r="1.06"/>
<circle fill="#ffffff" cx="330.01" cy="172.29" r="1.06"/>
<circle fill="#ffffff" cx="334.01" cy="172.29" r="1.06"/>
<circle fill="#ffffff" cx="338.01" cy="172.29" r="1.06"/>
<circle fill="#ffffff" cx="342.01" cy="172.29" r="1.06"/>
<circle fill="#ffffff" cx="346.01" cy="172.29" r="1.06"/>
<circle fill="#ffffff" cx="350.01" cy="172.29" r="1.06"/>
<circle fill="#ffffff" cx="354.01" cy="172.29" r="1.06"/>
<ellipse fill="#ffffff" cx="0.00" cy="0.00" transform="translate(369.52,172.28) rotate(86.8)" rx="1.04" ry="0.55"/>
<path fill="#ffffff" d="
  M 92.11 190.94
  Q 89.68 191.57 86.99 191.70
  Q 85.39 191.77 86.94 191.38
  L 157.67 173.37
  Q 158.31 173.20 158.68 173.76
  L 160.31 176.22
  Q 160.48 176.48 160.17 176.55
  Q 128.61 183.62 96.84 189.73
  Q 96.78 189.74 92.11 190.94
  Z"
/>
<rect fill="#ffffff" x="-10.89" y="-0.41" transform="translate(151.89,180.29) rotate(-11.2)" width="21.78" height="0.82" rx="0.27"/>
<path fill="#ffffff" d="
  M 165.07 181.19
  A 0.15 0.15 0.0 0 1 164.95 181.36
  L 118.52 189.46
  A 29.76 0.89 -9.9 0 1 89.05 193.70
  L 89.03 193.60
  A 29.76 0.89 -9.9 0 1 118.20 187.61
  L 164.63 179.51
  A 0.15 0.15 0.0 0 1 164.80 179.63
  L 165.07 181.19
  Z"
/>
<path fill="#ffffff" d="
  M 168.05 299.00
  Q 167.88 306.65 168.29 315.08
  Q 168.34 316.24 167.21 316.48
  Q 119.68 326.63 71.80 334.96
  A 0.97 0.97 0.0 0 1 70.67 334.00
  L 71.03 198.58
  A 0.84 0.83 86.9 0 1 71.77 197.75
  Q 109.50 193.66 146.74 185.47
  Q 156.30 183.37 169.40 182.19
  Q 169.92 182.15 169.92 182.66
  C 170.48 221.37 168.92 260.29 168.05 299.00
  Z"
/>
<path fill="#ffffff" d="
  M 345.52 199.50
  L 353.27 199.50
  A 0.41 0.41 0.0 0 1 353.56 200.19
  L 340.86 213.40
  A 0.41 0.41 0.0 0 0 340.81 213.91
  L 354.80 235.37
  A 0.41 0.41 0.0 0 1 354.45 236.00
  L 346.17 236.00
  A 0.41 0.41 0.0 0 1 345.83 235.81
  L 335.55 219.70
  A 0.41 0.41 0.0 0 0 334.91 219.63
  L 329.12 225.55
  A 0.41 0.41 0.0 0 0 329.00 225.84
  L 329.00 235.59
  A 0.41 0.41 0.0 0 1 328.59 236.00
  L 321.67 236.00
  A 0.41 0.41 0.0 0 1 321.26 235.59
  L 321.24 185.66
  A 0.41 0.41 0.0 0 1 321.65 185.25
  L 328.59 185.25
  A 0.41 0.41 0.0 0 1 329.00 185.66
  L 329.00 214.94
  A 0.41 0.41 0.0 0 0 329.70 215.23
  L 345.23 199.62
  A 0.41 0.41 0.0 0 1 345.52 199.50
  Z"
/>
<path fill="#ffffff" d="
  M 216.73 210.91
  C 222.44 212.44 225.90 216.63 225.97 222.63
  C 226.10 233.11 216.39 236.02 207.50 236.01
  Q 197.64 236.00 187.81 236.00
  A 0.56 0.56 0.0 0 1 187.25 235.44
  L 187.25 188.78
  Q 187.25 188.03 188.00 188.02
  Q 197.48 187.96 207.50 187.97
  C 217.05 187.98 228.08 193.41 223.18 204.96
  Q 221.65 208.57 216.71 210.33
  Q 215.79 210.66 216.73 210.91
  Z
  M 195.22 196.00
  L 195.26 207.32
  A 0.74 0.74 0.0 0 0 196.00 208.05
  L 208.27 208.01
  A 7.75 6.17 -0.2 0 0 216.00 201.81
  L 216.00 201.35
  A 7.75 6.17 -0.2 0 0 208.23 195.21
  L 195.96 195.25
  A 0.74 0.74 0.0 0 0 195.22 196.00
  Z
  M 195.25 215.89
  L 195.27 228.13
  A 0.89 0.89 0.0 0 0 196.16 229.02
  L 208.00 229.00
  A 9.77 6.48 -0.1 0 0 217.76 222.50
  L 217.76 221.44
  A 9.77 6.48 -0.1 0 0 207.98 214.98
  L 196.14 215.00
  A 0.89 0.89 0.0 0 0 195.25 215.89
  Z"
/>
<path fill="#ffffff" d="
  M 55.49 190.73
  C 55.18 195.77 64.34 198.89 68.20 198.79
  Q 68.81 198.77 68.68 199.37
  C 68.39 200.80 65.02 200.53 64.06 200.19
  Q 57.84 197.98 53.78 192.41
  A 1.16 1.16 0.0 0 1 54.12 190.74
  L 54.81 190.32
  Q 55.54 189.87 55.49 190.73
  Z"
/>
<path fill="#ffffff" d="
  M 65.92 194.21
  L 68.37 193.10
  Q 68.76 192.92 68.93 193.32
  Q 68.99 193.45 69.03 193.61
  Q 69.09 193.80 68.91 193.91
  Q 67.57 194.70 66.04 194.74
  Q 64.68 194.77 65.92 194.21
  Z"
/>
<path fill="#ffffff" d="
  M 60.73 194.17
  L 62.14 195.22
  Q 62.80 195.71 61.98 195.68
  Q 60.79 195.63 60.29 194.53
  Q 59.83 193.51 60.73 194.17
  Z"
/>
<path fill="#ffffff" d="
  M 67.33 202.19
  L 68.41 201.72
  Q 69.21 201.38 69.21 202.24
  L 68.48 336.13
  Q 68.47 336.61 68.03 336.78
  Q 66.19 337.51 64.17 336.79
  C 53.74 333.09 55.35 326.84 55.25 317.97
  Q 54.63 260.48 54.64 203.01
  Q 54.64 199.76 53.92 196.62
  A 0.44 0.44 0.0 0 1 54.68 196.24
  Q 59.31 201.58 66.39 202.33
  Q 66.88 202.38 67.33 202.19
  Z"
/>
<path fill="#ffffff" d="
  M 269.8271 217.4456
  A 19.16 18.65 -1.0 0 1 250.9955 236.4272
  A 19.16 18.65 -1.0 0 1 231.5129 218.1144
  A 19.16 18.65 -1.0 0 1 250.3445 199.1328
  A 19.16 18.65 -1.0 0 1 269.8271 217.4456
  Z
  M 250.6492 229.7600
  A 11.89 11.24 90.1 0 0 261.9100 217.8896
  A 11.89 11.24 90.1 0 0 250.6908 205.9800
  A 11.89 11.24 90.1 0 0 239.4300 217.8504
  A 11.89 11.24 90.1 0 0 250.6492 229.7600
  Z"
/>
<path fill="#ffffff" d="
  M 312.8276 217.4689
  A 19.17 18.64 -0.9 0 1 293.9528 236.4077
  A 19.17 18.64 -0.9 0 1 274.4924 218.0711
  A 19.17 18.64 -0.9 0 1 293.3672 199.1323
  A 19.17 18.64 -0.9 0 1 312.8276 217.4689
  Z
  M 293.6177 229.7598
  A 11.89 11.24 90.3 0 0 304.9198 217.9289
  A 11.89 11.24 90.3 0 0 293.7423 205.9802
  A 11.89 11.24 90.3 0 0 282.4402 217.8111
  A 11.89 11.24 90.3 0 0 293.6177 229.7598
  Z"
/>
<circle fill="#ffffff" cx="306.78" cy="242.49" r="4.27"/>
<path fill="#ffffff" d="
  M 194.25 273.13
  L 194.25 285.50
  Q 194.25 286.00 193.75 286.00
  L 187.46 286.00
  Q 186.98 286.00 186.98 285.52
  L 187.01 242.25
  Q 187.01 241.72 187.54 241.69
  C 200.98 240.97 224.73 238.54 222.71 258.82
  Q 221.91 266.77 214.17 271.00
  Q 213.65 271.29 213.98 271.78
  L 223.15 285.42
  A 0.36 0.36 0.0 0 1 222.85 285.99
  L 215.70 286.00
  Q 215.15 286.00 214.87 285.54
  L 207.27 273.04
  Q 206.94 272.50 206.30 272.50
  L 194.88 272.50
  Q 194.25 272.50 194.25 273.13
  Z
  M 194.22 248.65
  L 194.24 265.55
  A 0.41 0.41 0.0 0 0 194.66 265.96
  L 206.15 265.94
  A 9.62 8.21 -0.1 0 0 215.75 257.71
  L 215.75 256.41
  A 9.62 8.21 -0.1 0 0 206.11 248.22
  L 194.62 248.24
  A 0.41 0.41 0.0 0 0 194.22 248.65
  Z"
/>
<path fill="#ffffff" d="
  M 236.72 272.44
  C 239.44 281.45 249.47 282.57 256.11 276.79
  Q 256.59 276.38 257.02 276.84
  L 260.09 280.12
  Q 260.54 280.60 260.04 281.04
  Q 251.88 288.25 241.24 285.52
  C 224.69 281.27 225.32 255.63 242.62 252.34
  C 255.80 249.83 263.38 258.67 262.18 271.28
  Q 262.12 271.92 261.48 271.91
  L 237.25 271.73
  Q 236.51 271.73 236.72 272.44
  Z
  M 236.75 266.83
  L 255.65 266.57
  A 0.17 0.17 0.0 0 0 255.82 266.40
  L 255.82 266.35
  A 9.49 8.72 -0.8 0 0 246.21 257.76
  L 245.95 257.76
  A 9.49 8.72 -0.8 0 0 236.58 266.61
  L 236.58 266.66
  A 0.17 0.17 0.0 0 0 236.75 266.83
  Z"
/>
<path fill="#ffffff" d="
  M 325.37 272.49
  C 328.53 281.13 337.88 282.87 344.94 276.88
  Q 345.45 276.45 345.89 276.94
  L 348.70 280.07
  Q 349.12 280.54 348.66 280.97
  C 339.73 289.58 323.12 287.53 319.09 275.52
  C 310.18 248.94 353.60 241.23 350.92 271.15
  Q 350.87 271.69 350.33 271.70
  L 325.79 271.88
  Q 325.15 271.89 325.37 272.49
  Z
  M 325.49 266.85
  L 344.56 266.61
  A 0.17 0.17 0.0 0 0 344.73 266.44
  L 344.73 266.37
  A 9.56 8.74 -0.7 0 0 335.07 257.75
  L 334.77 257.75
  A 9.56 8.74 -0.7 0 0 325.31 266.61
  L 325.31 266.68
  A 0.17 0.17 0.0 0 0 325.49 266.85
  Z"
/>
<path fill="#ffffff" d="
  M 423.51 257.85
  C 419.16 258.16 418.80 262.73 422.73 264.23
  C 426.99 265.86 433.19 267.23 435.98 270.57
  C 440.37 275.84 437.17 283.44 430.38 285.25
  Q 420.52 287.87 411.94 282.10
  Q 411.29 281.67 411.65 280.97
  L 413.78 276.81
  A 0.40 0.40 0.0 0 1 414.38 276.68
  Q 419.96 280.97 426.93 280.40
  C 431.89 279.99 432.00 274.83 427.59 273.22
  C 423.45 271.72 417.38 270.37 414.78 266.92
  C 411.16 262.13 413.48 254.99 419.52 253.06
  Q 428.75 250.12 436.85 255.05
  Q 437.33 255.34 437.07 255.84
  L 434.91 260.19
  Q 434.65 260.71 434.15 260.41
  Q 429.22 257.44 423.51 257.85
  Z"
/>
<path fill="#ffffff" d="
  M 290.96 252.25
  L 297.29 252.25
  A 0.42 0.42 0.0 0 1 297.68 252.82
  L 285.03 285.73
  A 0.42 0.42 0.0 0 1 284.64 286.00
  L 277.74 286.00
  A 0.42 0.42 0.0 0 1 277.35 285.73
  L 264.58 252.82
  A 0.42 0.42 0.0 0 1 264.97 252.25
  L 271.64 252.25
  A 0.42 0.42 0.0 0 1 272.04 252.53
  L 280.94 277.90
  A 0.42 0.42 0.0 0 0 281.73 277.90
  L 290.56 252.53
  A 0.42 0.42 0.0 0 1 290.96 252.25
  Z"
/>
<rect fill="#ffffff" x="303.25" y="252.25" width="7.02" height="33.74" rx="0.26"/>
<path fill="#ffffff" d="
  M 378.14 252.25
  L 385.17 252.25
  A 0.35 0.35 0.0 0 1 385.51 252.49
  L 393.67 277.99
  A 0.35 0.35 0.0 0 0 394.34 277.99
  L 402.61 252.49
  A 0.35 0.35 0.0 0 1 402.94 252.25
  L 409.55 252.25
  A 0.35 0.35 0.0 0 1 409.88 252.72
  L 397.82 285.77
  A 0.35 0.35 0.0 0 1 397.50 286.00
  L 390.49 286.00
  A 0.35 0.35 0.0 0 1 390.16 285.76
  L 381.93 261.80
  A 0.35 0.35 0.0 0 0 381.27 261.80
  L 373.09 285.76
  A 0.35 0.35 0.0 0 1 372.76 286.00
  L 365.82 286.00
  A 0.35 0.35 0.0 0 1 365.50 285.77
  L 353.32 252.72
  A 0.35 0.35 0.0 0 1 353.65 252.25
  L 360.34 252.25
  A 0.35 0.35 0.0 0 1 360.67 252.49
  L 368.98 278.00
  A 0.35 0.35 0.0 0 0 369.65 278.00
  L 377.80 252.49
  A 0.35 0.35 0.0 0 1 378.14 252.25
  Z"
/>
<path fill="#ffffff" d="
  M 206.70 304.76
  A 0.94 0.94 0.0 0 0 207.01 306.17
  C 208.63 307.02 210.94 307.74 211.91 309.09
  C 213.24 310.93 211.94 313.80 209.59 314.05
  C 208.20 314.19 207.13 313.09 205.37 314.02
  Q 204.69 314.38 204.73 313.61
  L 204.85 310.79
  A 0.55 0.55 0.0 0 1 205.81 310.44
  C 210.13 315.22 212.15 310.25 209.52 309.21
  Q 206.84 308.16 205.41 307.00
  Q 204.97 306.65 204.95 306.08
  Q 204.80 302.56 208.22 302.29
  Q 208.77 302.25 209.26 302.49
  Q 210.43 303.06 211.54 302.35
  Q 212.30 301.85 212.28 302.76
  L 212.19 305.48
  Q 212.16 306.45 211.30 306.02
  Q 210.54 305.66 210.30 304.81
  Q 210.16 304.35 209.73 304.11
  Q 207.95 303.14 206.70 304.76
  Z"
/>
<path fill="#ffffff" d="
  M 222.91 302.91
  L 223.70 302.37
  Q 224.51 301.82 224.51 302.80
  L 224.49 306.38
  Q 224.48 307.22 223.72 306.86
  Q 222.76 306.42 222.71 305.35
  Q 222.63 303.58 220.86 303.71
  C 216.86 304.01 217.48 310.06 219.22 312.13
  Q 219.59 312.59 220.18 312.57
  Q 222.46 312.49 223.24 310.45
  Q 224.28 307.70 224.35 310.64
  C 224.43 313.50 220.37 315.11 218.19 313.39
  C 214.30 310.33 216.42 299.36 222.16 302.92
  Q 222.54 303.16 222.91 302.91
  Z"
/>
<path fill="#ffffff" d="
  M 232.4295 314.2200
  A 6.04 4.44 90.1 0 1 228.0000 308.1723
  A 6.04 4.44 90.1 0 1 232.4505 302.1400
  A 6.04 4.44 90.1 0 1 236.8800 308.1877
  A 6.04 4.44 90.1 0 1 232.4295 314.2200
  Z
  M 232.4022 312.6600
  A 4.47 2.70 90.1 0 0 235.1100 308.1947
  A 4.47 2.70 90.1 0 0 232.4178 303.7200
  A 4.47 2.70 90.1 0 0 229.7100 308.1853
  A 4.47 2.70 90.1 0 0 232.4022 312.6600
  Z"
/>
<path fill="#ffffff" d="
  M 244.50 310.58
  C 245.00 309.06 246.38 302.24 248.07 302.31
  Q 248.81 302.34 248.59 303.05
  L 245.27 313.70
  A 1.16 1.16 0.0 0 1 243.05 313.70
  L 239.79 303.24
  Q 239.62 302.68 240.18 302.53
  C 242.02 302.03 243.36 309.20 243.89 310.59
  Q 244.22 311.43 244.50 310.58
  Z"
/>
<path fill="#ffffff" d="
  M 327.22 310.72
  L 329.70 302.43
  Q 330.13 301.01 331.03 302.20
  C 331.73 303.13 328.62 311.62 328.10 313.21
  A 1.04 0.90 80.5 0 1 327.90 313.54
  C 325.39 316.20 322.91 304.43 322.51 303.12
  Q 322.37 302.63 322.79 302.35
  C 324.48 301.23 326.32 309.99 326.57 310.73
  Q 326.92 311.72 327.22 310.72
  Z"
/>
<path fill="#ffffff" d="
  M 395.70 304.75
  A 0.96 0.95 32.1 0 0 396.04 306.21
  C 397.75 307.02 400.31 307.91 401.15 309.52
  C 402.09 311.31 400.68 313.81 398.59 314.05
  C 397.25 314.20 396.17 313.13 394.46 313.97
  Q 393.89 314.26 393.80 313.63
  Q 393.59 312.08 393.92 310.51
  Q 394.18 309.30 394.93 310.29
  L 396.08 311.81
  Q 396.36 312.18 396.79 312.36
  Q 398.31 313.00 399.45 311.93
  A 1.49 1.48 -56.5 0 0 398.95 309.45
  C 396.88 308.68 391.77 306.55 394.76 303.37
  Q 396.37 301.67 398.89 302.64
  Q 399.35 302.83 399.83 302.68
  L 400.38 302.50
  Q 401.25 302.23 401.25 303.14
  L 401.25 305.52
  Q 401.25 306.07 400.70 306.02
  Q 399.70 305.94 399.35 304.88
  Q 399.17 304.34 398.66 304.09
  Q 396.92 303.22 395.70 304.75
  Z"
/>
<path fill="#ffffff" d="
  M 411.89 306.25
  C 411.49 303.02 407.69 303.02 407.14 306.08
  Q 406.66 308.70 407.45 311.27
  A 2.02 2.02 0.0 0 0 410.43 312.41
  Q 411.58 311.72 412.14 310.50
  Q 412.37 309.99 412.93 310.02
  C 415.35 310.14 408.42 319.00 405.62 311.07
  C 404.56 308.05 406.12 299.25 411.13 302.87
  Q 411.59 303.20 412.01 302.83
  L 412.66 302.28
  Q 413.50 301.55 413.50 302.66
  L 413.50 306.19
  Q 413.50 306.75 412.94 306.75
  Q 412.70 306.75 412.46 306.75
  Q 411.95 306.75 411.89 306.25
  Z"
/>
<path fill="#ffffff" d="
  M 422.57 312.09
  A 1.80 1.75 71.2 0 0 423.20 310.77
  L 423.35 302.90
  Q 423.36 302.26 424.01 302.25
  C 425.60 302.22 425.01 308.54 424.98 309.73
  C 424.92 312.66 423.73 314.69 420.50 313.98
  C 416.65 313.14 417.71 306.18 417.74 303.37
  Q 417.74 302.82 418.22 302.53
  L 418.58 302.32
  A 0.60 0.59 -15.3 0 1 419.48 302.83
  L 419.53 310.95
  Q 419.53 311.54 419.97 311.93
  Q 421.33 313.13 422.57 312.09
  Z"
/>
<path fill="#ffffff" d="
  M 431.30 305.92
  C 432.81 307.09 438.15 308.57 436.98 311.43
  Q 435.48 315.08 431.92 313.67
  Q 431.46 313.49 430.99 313.64
  L 429.91 314.00
  Q 429.09 314.27 429.18 313.41
  L 429.51 310.14
  A 0.56 0.56 0.0 0 1 430.62 310.07
  Q 431.04 311.90 432.68 312.66
  A 1.64 1.63 12.4 0 0 435.00 311.18
  L 435.00 310.38
  Q 435.00 309.76 434.43 309.49
  L 430.53 307.67
  A 2.19 2.19 0.0 0 1 429.42 304.88
  C 431.05 300.80 433.26 303.20 436.03 302.46
  Q 436.80 302.25 436.78 303.05
  L 436.68 305.61
  Q 436.65 306.56 435.79 306.15
  L 435.27 305.90
  Q 434.95 305.75 434.95 305.39
  C 434.90 303.09 431.96 303.55 431.12 304.93
  Q 430.77 305.51 431.30 305.92
  Z"
/>
<path fill="#ffffff" d="
  M 443.11 304.39
  A 1.04 1.03 -47.4 0 0 443.18 306.21
  C 444.78 306.97 446.99 307.67 448.04 308.90
  C 449.62 310.77 448.24 313.89 445.69 314.06
  C 444.25 314.16 443.46 313.14 441.73 313.95
  Q 440.95 314.32 440.98 313.46
  L 441.06 310.76
  A 0.67 0.67 0.0 0 1 441.84 310.12
  Q 442.78 310.27 442.81 311.04
  Q 442.84 311.64 443.32 311.99
  C 444.46 312.82 446.60 312.88 447.00 311.18
  C 447.49 309.08 442.40 308.53 441.44 306.41
  C 440.48 304.27 442.36 302.33 444.59 302.33
  Q 445.10 302.33 445.55 302.55
  Q 446.63 303.06 447.69 302.42
  Q 448.15 302.14 448.33 302.65
  C 448.54 303.26 448.99 306.34 447.44 306.00
  Q 446.93 305.88 446.81 305.37
  C 446.39 303.59 444.35 303.67 443.11 304.39
  Z"
/>
<path fill="#ffffff" d="
  M 181.52 302.90
  A 0.44 0.44 0.0 0 1 181.96 302.46
  L 185.03 302.47
  A 4.60 4.51 -89.8 0 1 189.52 307.08
  L 189.52 309.42
  A 4.60 4.51 -89.8 0 1 184.99 314.01
  L 181.92 314.00
  A 0.44 0.44 0.0 0 1 181.48 313.56
  L 181.52 302.90
  Z
  M 183.05 305.05
  L 183.19 311.47
  A 1.07 1.07 0.0 0 0 184.28 312.52
  L 184.84 312.50
  A 3.34 3.07 88.8 0 0 187.84 309.10
  L 187.80 307.22
  A 3.34 3.07 88.8 0 0 184.66 303.95
  L 184.10 303.96
  A 1.07 1.07 0.0 0 0 183.05 305.05
  Z"
/>
<path fill="#ffffff" d="
  M 196.00 311.76
  L 195.99 304.58
  Q 195.99 303.92 195.34 304.01
  Q 194.44 304.14 194.03 303.33
  Q 193.68 302.62 194.47 302.56
  C 195.28 302.49 199.77 302.14 199.88 303.09
  Q 199.94 303.59 199.46 303.74
  L 198.40 304.05
  Q 197.75 304.24 197.75 304.92
  L 197.75 311.81
  Q 197.75 312.30 198.23 312.39
  L 199.54 312.62
  Q 200.13 312.72 199.89 313.27
  C 199.37 314.48 195.07 313.99 194.27 313.77
  Q 193.45 313.54 194.02 312.91
  Q 194.50 312.37 195.30 312.43
  Q 196.00 312.47 196.00 311.76
  Z"
/>
<path fill="#ffffff" d="
  M 253.99 310.12
  L 254.02 311.86
  Q 254.03 312.49 254.67 312.49
  L 259.17 312.51
  Q 259.94 312.51 259.74 313.26
  C 259.43 314.45 254.02 314.02 252.90 313.96
  Q 252.25 313.92 252.25 313.27
  L 252.25 303.13
  Q 252.25 302.50 252.88 302.50
  L 259.23 302.50
  Q 259.91 302.50 259.77 303.16
  C 259.49 304.47 255.76 304.01 254.69 304.00
  Q 254.00 303.99 254.00 304.69
  L 254.00 306.57
  Q 254.00 307.14 254.57 307.18
  L 258.13 307.40
  Q 259.62 307.49 258.45 308.42
  Q 257.26 309.37 255.58 308.90
  A 1.25 1.25 0.0 0 0 253.99 310.12
  Z"
/>
<path fill="#ffffff" d="
  M 265.75 309.51
  L 265.75 313.37
  Q 265.75 314.00 265.13 314.00
  L 264.63 314.00
  Q 264.00 314.00 264.00 313.37
  L 264.00 303.24
  Q 264.00 302.64 264.59 302.59
  C 268.24 302.24 273.87 302.55 270.98 307.90
  Q 270.75 308.32 270.33 308.53
  L 269.20 309.10
  Q 268.63 309.39 269.02 309.90
  L 271.42 313.11
  Q 271.80 313.62 271.21 313.84
  C 269.12 314.61 267.58 310.42 266.57 309.21
  Q 265.75 308.23 265.75 309.51
  Z
  M 265.73 304.68
  L 265.75 307.08
  A 0.68 0.68 0.0 0 0 266.43 307.76
  L 267.80 307.75
  A 2.21 1.77 -0.4 0 0 270.00 305.97
  L 270.00 305.75
  A 2.21 1.77 -0.4 0 0 267.78 303.99
  L 266.41 304.00
  A 0.68 0.68 0.0 0 0 265.73 304.68
  Z"
/>
<path fill="#ffffff" d="
  M 299.47 303.00
  A 0.54 0.54 0.0 0 1 300.01 302.46
  L 302.95 302.45
  A 4.68 4.54 89.8 0 1 307.51 307.12
  L 307.51 309.30
  A 4.68 4.54 89.8 0 1 302.99 313.99
  L 300.05 314.00
  A 0.54 0.54 0.0 0 1 299.51 313.46
  L 299.47 303.00
  Z
  M 301.06 304.95
  L 301.16 311.55
  A 0.98 0.98 0.0 0 0 302.16 312.51
  L 302.96 312.50
  A 3.23 2.94 89.1 0 0 305.85 309.22
  L 305.81 307.12
  A 3.23 2.94 89.1 0 0 302.82 303.94
  L 302.02 303.95
  A 0.98 0.98 0.0 0 0 301.06 304.95
  Z"
/>
<path fill="#ffffff" d="
  M 314.00 311.79
  C 314.00 310.16 314.89 303.73 312.52 303.83
  Q 311.99 303.86 312.00 303.33
  Q 312.00 303.09 312.00 302.87
  Q 312.00 302.49 312.37 302.49
  L 317.54 302.53
  Q 318.72 302.54 317.83 303.32
  Q 317.13 303.94 316.22 304.15
  Q 315.75 304.25 315.75 304.74
  L 315.75 311.78
  Q 315.75 312.47 316.44 312.44
  Q 317.30 312.39 317.96 312.92
  Q 318.63 313.46 317.80 313.68
  Q 315.02 314.40 312.23 313.72
  Q 310.96 313.41 312.09 312.76
  Q 312.66 312.43 313.35 312.44
  Q 314.01 312.45 314.00 311.79
  Z"
/>
<path fill="#ffffff" d="
  M 336.75 309.67
  L 336.75 311.96
  Q 336.75 312.49 337.28 312.50
  C 338.57 312.54 342.01 312.01 342.47 313.20
  A 0.58 0.57 -10.9 0 1 341.93 313.99
  L 335.50 314.00
  Q 335.00 314.01 335.00 313.50
  L 335.00 303.25
  Q 335.00 302.50 335.75 302.50
  L 341.99 302.50
  Q 342.74 302.50 342.42 303.17
  L 342.26 303.49
  Q 342.02 304.00 341.46 304.00
  L 337.38 304.00
  Q 336.75 304.00 336.75 304.63
  L 336.75 306.71
  Q 336.75 307.29 337.32 307.27
  C 338.27 307.23 341.22 306.78 341.26 308.23
  Q 341.28 308.87 340.63 308.90
  L 337.34 309.05
  Q 336.75 309.08 336.75 309.67
  Z"
/>
<path fill="#ffffff" d="
  M 370.50 303.11
  A 0.64 0.64 0.0 0 1 371.14 302.47
  L 373.99 302.48
  A 4.70 4.53 -89.8 0 1 378.50 307.19
  L 378.50 309.31
  A 4.70 4.53 -89.8 0 1 373.95 314.00
  L 371.10 313.99
  A 0.64 0.64 0.0 0 1 370.46 313.35
  L 370.50 303.11
  Z
  M 372.00 304.99
  L 372.22 311.59
  A 0.98 0.98 0.0 0 0 373.23 312.53
  L 374.03 312.51
  A 3.19 2.94 88.1 0 0 376.86 309.22
  L 376.79 307.04
  A 3.19 2.94 88.1 0 0 373.75 303.95
  L 372.95 303.98
  A 0.98 0.98 0.0 0 0 372.00 304.99
  Z"
/>
<path fill="#ffffff" d="
  M 385.00 311.70
  L 385.00 304.72
  Q 385.00 303.96 384.25 304.03
  Q 383.40 304.10 383.01 303.28
  Q 382.64 302.49 383.51 302.50
  L 388.43 302.51
  Q 389.34 302.51 388.87 303.29
  Q 388.39 304.09 387.45 304.05
  Q 386.75 304.02 386.75 304.72
  L 386.75 311.75
  Q 386.75 312.50 387.50 312.50
  L 388.42 312.50
  Q 388.90 312.50 388.89 312.98
  C 388.87 314.39 382.95 314.59 383.00 313.03
  Q 383.01 312.60 383.43 312.55
  L 384.37 312.42
  Q 385.00 312.33 385.00 311.70
  Z"
/>
<circle fill="#ffffff" cx="279.64" cy="312.92" r="1.20"/>
<circle fill="#ffffff" cx="350.38" cy="312.95" r="1.17"/>
<circle fill="#ffffff" cx="456.65" cy="312.90" r="1.19"/>
<circle fill="#ffffff" cx="182.03" cy="327.72" r="1.08"/>
<ellipse fill="#ffffff" cx="0.00" cy="0.00" transform="translate(186.00,327.75) rotate(54.4)" rx="1.12" ry="1.04"/>
<ellipse fill="#ffffff" cx="0.00" cy="0.00" transform="translate(190.00,327.75) rotate(54.4)" rx="1.12" ry="1.04"/>
<ellipse fill="#ffffff" cx="0.00" cy="0.00" transform="translate(194.00,327.75) rotate(54.4)" rx="1.12" ry="1.04"/>
<ellipse fill="#ffffff" cx="0.00" cy="0.00" transform="translate(198.00,327.75) rotate(54.4)" rx="1.12" ry="1.04"/>
<ellipse fill="#ffffff" cx="0.00" cy="0.00" transform="translate(202.00,327.75) rotate(54.4)" rx="1.12" ry="1.04"/>
<ellipse fill="#ffffff" cx="0.00" cy="0.00" transform="translate(206.00,327.75) rotate(54.4)" rx="1.12" ry="1.04"/>
<ellipse fill="#ffffff" cx="0.00" cy="0.00" transform="translate(210.00,327.75) rotate(54.4)" rx="1.12" ry="1.04"/>
<ellipse fill="#ffffff" cx="0.00" cy="0.00" transform="translate(214.00,327.75) rotate(54.4)" rx="1.12" ry="1.04"/>
<ellipse fill="#ffffff" cx="0.00" cy="0.00" transform="translate(218.00,327.75) rotate(54.4)" rx="1.12" ry="1.04"/>
<ellipse fill="#ffffff" cx="0.00" cy="0.00" transform="translate(222.00,327.75) rotate(54.4)" rx="1.12" ry="1.04"/>
<ellipse fill="#ffffff" cx="0.00" cy="0.00" transform="translate(226.00,327.75) rotate(54.4)" rx="1.12" ry="1.04"/>
<ellipse fill="#ffffff" cx="0.00" cy="0.00" transform="translate(230.00,327.75) rotate(54.4)" rx="1.12" ry="1.04"/>
<path fill="#ffffff" d="
  M 233.38 326.67
  A 0.88 0.88 0.0 0 1 234.96 327.24
  L 234.88 328.40
  A 0.73 0.73 0.0 0 1 233.72 328.95
  Q 232.41 327.98 233.38 326.67
  Z"
/>
<path fill="#ffffff" d="
  M 237.38 326.67
  A 0.88 0.88 0.0 0 1 238.96 327.24
  L 238.88 328.40
  A 0.73 0.73 0.0 0 1 237.72 328.95
  Q 236.41 327.98 237.38 326.67
  Z"
/>
<ellipse fill="#ffffff" cx="0.00" cy="0.00" transform="translate(242.00,327.75) rotate(54.4)" rx="1.12" ry="1.04"/>
<ellipse fill="#ffffff" cx="0.00" cy="0.00" transform="translate(246.00,327.75) rotate(54.4)" rx="1.12" ry="1.04"/>
<ellipse fill="#ffffff" cx="0.00" cy="0.00" transform="translate(250.00,327.75) rotate(54.4)" rx="1.12" ry="1.04"/>
<ellipse fill="#ffffff" cx="0.00" cy="0.00" transform="translate(254.00,327.75) rotate(54.4)" rx="1.12" ry="1.04"/>
<path fill="#ffffff" d="
  M 257.38 326.67
  A 0.88 0.88 0.0 0 1 258.96 327.24
  L 258.88 328.40
  A 0.73 0.73 0.0 0 1 257.72 328.95
  Q 256.41 327.98 257.38 326.67
  Z"
/>
<path fill="#ffffff" d="
  M 261.38 326.67
  A 0.88 0.88 0.0 0 1 262.96 327.24
  L 262.88 328.40
  A 0.73 0.73 0.0 0 1 261.72 328.95
  Q 260.41 327.98 261.38 326.67
  Z"
/>
<ellipse fill="#ffffff" cx="0.00" cy="0.00" transform="translate(266.00,327.75) rotate(54.4)" rx="1.12" ry="1.04"/>
<path fill="#ffffff" d="
  M 269.38 326.67
  A 0.88 0.88 0.0 0 1 270.96 327.24
  L 270.88 328.40
  A 0.73 0.73 0.0 0 1 269.72 328.95
  Q 268.41 327.98 269.38 326.67
  Z"
/>
<ellipse fill="#ffffff" cx="0.00" cy="0.00" transform="translate(274.00,327.75) rotate(54.4)" rx="1.12" ry="1.04"/>
<path fill="#ffffff" d="
  M 277.38 326.67
  A 0.88 0.88 0.0 0 1 278.96 327.24
  L 278.88 328.40
  A 0.73 0.73 0.0 0 1 277.72 328.95
  Q 276.41 327.98 277.38 326.67
  Z"
/>
<ellipse fill="#ffffff" cx="0.00" cy="0.00" transform="translate(282.00,327.75) rotate(54.4)" rx="1.12" ry="1.04"/>
<ellipse fill="#ffffff" cx="0.00" cy="0.00" transform="translate(286.00,327.75) rotate(54.4)" rx="1.12" ry="1.04"/>
<ellipse fill="#ffffff" cx="0.00" cy="0.00" transform="translate(290.00,327.75) rotate(54.4)" rx="1.12" ry="1.04"/>
<path fill="#ffffff" d="
  M 293.38 326.67
  A 0.88 0.88 0.0 0 1 294.96 327.24
  L 294.88 328.40
  A 0.73 0.73 0.0 0 1 293.72 328.95
  Q 292.41 327.98 293.38 326.67
  Z"
/>
<path fill="#ffffff" d="
  M 297.38 326.67
  A 0.88 0.88 0.0 0 1 298.96 327.24
  L 298.88 328.40
  A 0.73 0.73 0.0 0 1 297.72 328.95
  Q 296.41 327.98 297.38 326.67
  Z"
/>
<ellipse fill="#ffffff" cx="0.00" cy="0.00" transform="translate(302.00,327.75) rotate(54.4)" rx="1.12" ry="1.04"/>
<ellipse fill="#ffffff" cx="0.00" cy="0.00" transform="translate(306.00,327.75) rotate(54.4)" rx="1.12" ry="1.04"/>
<path fill="#ffffff" d="
  M 309.38 326.67
  A 0.88 0.88 0.0 0 1 310.96 327.24
  L 310.88 328.40
  A 0.73 0.73 0.0 0 1 309.72 328.95
  Q 308.41 327.98 309.38 326.67
  Z"
/>
<ellipse fill="#ffffff" cx="0.00" cy="0.00" transform="translate(314.00,327.75) rotate(54.4)" rx="1.12" ry="1.04"/>
<path fill="#ffffff" d="
  M 317.38 326.67
  A 0.88 0.88 0.0 0 1 318.96 327.24
  L 318.88 328.40
  A 0.73 0.73 0.0 0 1 317.72 328.95
  Q 316.41 327.98 317.38 326.67
  Z"
/>
<path fill="#ffffff" d="
  M 321.38 326.67
  A 0.88 0.88 0.0 0 1 322.96 327.24
  L 322.88 328.40
  A 0.73 0.73 0.0 0 1 321.72 328.95
  Q 320.41 327.98 321.38 326.67
  Z"
/>
<path fill="#ffffff" d="
  M 325.38 326.67
  A 0.88 0.88 0.0 0 1 326.96 327.24
  L 326.88 328.40
  A 0.73 0.73 0.0 0 1 325.72 328.95
  Q 324.41 327.98 325.38 326.67
  Z"
/>
<path fill="#ffffff" d="
  M 329.38 326.67
  A 0.88 0.88 0.0 0 1 330.96 327.24
  L 330.88 328.40
  A 0.73 0.73 0.0 0 1 329.72 328.95
  Q 328.41 327.98 329.38 326.67
  Z"
/>
<path fill="#ffffff" d="
  M 333.38 326.67
  A 0.88 0.88 0.0 0 1 334.96 327.24
  L 334.88 328.40
  A 0.73 0.73 0.0 0 1 333.72 328.95
  Q 332.41 327.98 333.38 326.67
  Z"
/>
<path fill="#ffffff" d="
  M 337.38 326.67
  A 0.88 0.88 0.0 0 1 338.96 327.24
  L 338.88 328.40
  A 0.73 0.73 0.0 0 1 337.72 328.95
  Q 336.41 327.98 337.38 326.67
  Z"
/>
<path fill="#ffffff" d="
  M 341.38 326.67
  A 0.88 0.88 0.0 0 1 342.96 327.24
  L 342.88 328.40
  A 0.73 0.73 0.0 0 1 341.72 328.95
  Q 340.41 327.98 341.38 326.67
  Z"
/>
<path fill="#ffffff" d="
  M 345.38 326.67
  A 0.88 0.88 0.0 0 1 346.96 327.24
  L 346.88 328.40
  A 0.73 0.73 0.0 0 1 345.72 328.95
  Q 344.41 327.98 345.38 326.67
  Z"
/>
<path fill="#ffffff" d="
  M 349.38 326.67
  A 0.88 0.88 0.0 0 1 350.96 327.24
  L 350.88 328.40
  A 0.73 0.73 0.0 0 1 349.72 328.95
  Q 348.41 327.98 349.38 326.67
  Z"
/>
<ellipse fill="#ffffff" cx="0.00" cy="0.00" transform="translate(354.00,327.75) rotate(54.4)" rx="1.12" ry="1.04"/>
<path fill="#ffffff" d="
  M 357.38 326.67
  A 0.88 0.88 0.0 0 1 358.96 327.24
  L 358.88 328.40
  A 0.73 0.73 0.0 0 1 357.72 328.95
  Q 356.41 327.98 357.38 326.67
  Z"
/>
<ellipse fill="#ffffff" cx="0.00" cy="0.00" transform="translate(362.00,327.75) rotate(54.4)" rx="1.12" ry="1.04"/>
<ellipse fill="#ffffff" cx="0.00" cy="0.00" transform="translate(366.00,327.75) rotate(54.4)" rx="1.12" ry="1.04"/>
<ellipse fill="#ffffff" cx="0.00" cy="0.00" transform="translate(370.00,327.75) rotate(54.4)" rx="1.12" ry="1.04"/>
<path fill="#ffffff" d="
  M 373.38 326.67
  A 0.88 0.88 0.0 0 1 374.96 327.24
  L 374.88 328.40
  A 0.73 0.73 0.0 0 1 373.72 328.95
  Q 372.41 327.98 373.38 326.67
  Z"
/>
<path fill="#ffffff" d="
  M 377.38 326.67
  A 0.88 0.88 0.0 0 1 378.96 327.24
  L 378.88 328.40
  A 0.73 0.73 0.0 0 1 377.72 328.95
  Q 376.41 327.98 377.38 326.67
  Z"
/>
<path fill="#ffffff" d="
  M 381.38 326.67
  A 0.88 0.88 0.0 0 1 382.96 327.24
  L 382.88 328.40
  A 0.73 0.73 0.0 0 1 381.72 328.95
  Q 380.41 327.98 381.38 326.67
  Z"
/>
<ellipse fill="#ffffff" cx="0.00" cy="0.00" transform="translate(386.00,327.75) rotate(54.4)" rx="1.12" ry="1.04"/>
<path fill="#ffffff" d="
  M 389.38 326.67
  A 0.88 0.88 0.0 0 1 390.96 327.24
  L 390.88 328.40
  A 0.73 0.73 0.0 0 1 389.72 328.95
  Q 388.41 327.98 389.38 326.67
  Z"
/>
<path fill="#ffffff" d="
  M 393.38 326.67
  A 0.88 0.88 0.0 0 1 394.96 327.24
  L 394.88 328.40
  A 0.73 0.73 0.0 0 1 393.72 328.95
  Q 392.41 327.98 393.38 326.67
  Z"
/>
<path fill="#ffffff" d="
  M 397.38 326.67
  A 0.88 0.88 0.0 0 1 398.96 327.24
  L 398.88 328.40
  A 0.73 0.73 0.0 0 1 397.72 328.95
  Q 396.41 327.98 397.38 326.67
  Z"
/>
<ellipse fill="#ffffff" cx="0.00" cy="0.00" transform="translate(402.00,327.75) rotate(54.4)" rx="1.12" ry="1.04"/>
<ellipse fill="#ffffff" cx="0.00" cy="0.00" transform="translate(406.00,327.75) rotate(54.4)" rx="1.12" ry="1.04"/>
<ellipse fill="#ffffff" cx="0.00" cy="0.00" transform="translate(410.00,327.75) rotate(54.4)" rx="1.12" ry="1.04"/>
<path fill="#ffffff" d="
  M 413.38 326.67
  A 0.88 0.88 0.0 0 1 414.96 327.24
  L 414.88 328.40
  A 0.73 0.73 0.0 0 1 413.72 328.95
  Q 412.41 327.98 413.38 326.67
  Z"
/>
<path fill="#ffffff" d="
  M 417.38 326.67
  A 0.88 0.88 0.0 0 1 418.96 327.24
  L 418.88 328.40
  A 0.73 0.73 0.0 0 1 417.72 328.95
  Q 416.41 327.98 417.38 326.67
  Z"
/>
<path fill="#ffffff" d="
  M 421.38 326.67
  A 0.88 0.88 0.0 0 1 422.96 327.24
  L 422.88 328.40
  A 0.73 0.73 0.0 0 1 421.72 328.95
  Q 420.41 327.98 421.38 326.67
  Z"
/>
<path fill="#ffffff" d="
  M 425.38 326.67
  A 0.88 0.88 0.0 0 1 426.96 327.24
  L 426.88 328.40
  A 0.73 0.73 0.0 0 1 425.72 328.95
  Q 424.41 327.98 425.38 326.67
  Z"
/>
<ellipse fill="#ffffff" cx="0.00" cy="0.00" transform="translate(430.00,327.75) rotate(54.4)" rx="1.12" ry="1.04"/>
<ellipse fill="#ffffff" cx="0.00" cy="0.00" transform="translate(434.00,327.75) rotate(54.4)" rx="1.12" ry="1.04"/>
<ellipse fill="#ffffff" cx="0.00" cy="0.00" transform="translate(438.00,327.75) rotate(54.4)" rx="1.12" ry="1.04"/>
<ellipse fill="#ffffff" cx="0.00" cy="0.00" transform="translate(441.50,327.75) rotate(90.0)" rx="1.01" ry="0.54"/>
</svg>
